<mxfile host="65bd71144e">
    <diagram id="rCF_IZmc6QIaDy28ZCjl" name="PÃ¡gina-1">
        <mxGraphModel dx="1175" dy="1551" grid="1" gridSize="10" guides="1" tooltips="1" connect="1" arrows="1" fold="1" page="1" pageScale="1" pageWidth="827" pageHeight="1169" math="0" shadow="0">
            <root>
                <mxCell id="0"/>
                <mxCell id="1" parent="0"/>
                <mxCell id="2" value="" style="edgeStyle=none;html=1;" edge="1" parent="1" source="3" target="5">
                    <mxGeometry relative="1" as="geometry"/>
                </mxCell>
                <mxCell id="3" value="inicio" style="ellipse;whiteSpace=wrap;html=1;fillColor=#000099;" vertex="1" parent="1">
                    <mxGeometry x="340" y="-180" width="120" height="80" as="geometry"/>
                </mxCell>
                <mxCell id="4" value="" style="edgeStyle=none;html=1;" edge="1" parent="1" source="5">
                    <mxGeometry relative="1" as="geometry">
                        <mxPoint x="400" y="150" as="targetPoint"/>
                    </mxGeometry>
                </mxCell>
                <mxCell id="5" value="gasto del agua" style="shape=parallelogram;perimeter=parallelogramPerimeter;whiteSpace=wrap;html=1;fixedSize=1;fillColor=#003333;" vertex="1" parent="1">
                    <mxGeometry x="325" y="-40" width="150" height="80" as="geometry"/>
                </mxCell>
                <mxCell id="6" value="gasto&amp;lt;=50&lt;sup&gt;3&lt;/sup&gt;" style="rhombus;whiteSpace=wrap;html=1;fillColor=#333333;" vertex="1" parent="1">
                    <mxGeometry x="350" y="250" width="100" height="100" as="geometry"/>
                </mxCell>
                <mxCell id="7" value="gasto&amp;lt;200&lt;sup&gt;3&lt;/sup&gt;" style="rhombus;whiteSpace=wrap;html=1;fillColor=#333333;" vertex="1" parent="1">
                    <mxGeometry x="235" y="350" width="105" height="110" as="geometry"/>
                </mxCell>
                <mxCell id="8" value="" style="endArrow=none;html=1;exitX=0.5;exitY=0;exitDx=0;exitDy=0;entryX=1;entryY=0.5;entryDx=0;entryDy=0;" edge="1" parent="1" target="7">
                    <mxGeometry width="50" height="50" relative="1" as="geometry">
                        <mxPoint x="440" y="480" as="sourcePoint"/>
                        <mxPoint x="440" y="440" as="targetPoint"/>
                        <Array as="points">
                            <mxPoint x="440" y="405"/>
                        </Array>
                    </mxGeometry>
                </mxCell>
                <mxCell id="9" value="" style="endArrow=none;html=1;exitX=0.5;exitY=0;exitDx=0;exitDy=0;entryX=0;entryY=0.5;entryDx=0;entryDy=0;" edge="1" parent="1" target="7">
                    <mxGeometry width="50" height="50" relative="1" as="geometry">
                        <mxPoint x="140" y="480" as="sourcePoint"/>
                        <mxPoint x="440" y="440" as="targetPoint"/>
                        <Array as="points">
                            <mxPoint x="140" y="405"/>
                        </Array>
                    </mxGeometry>
                </mxCell>
                <mxCell id="10" value="" style="endArrow=none;html=1;entryX=1;entryY=0.5;entryDx=0;entryDy=0;exitX=0.5;exitY=0;exitDx=0;exitDy=0;" edge="1" parent="1" target="6">
                    <mxGeometry width="50" height="50" relative="1" as="geometry">
                        <mxPoint x="610" y="365" as="sourcePoint"/>
                        <mxPoint x="440" y="440" as="targetPoint"/>
                        <Array as="points">
                            <mxPoint x="610" y="300"/>
                        </Array>
                    </mxGeometry>
                </mxCell>
                <mxCell id="11" value="" style="endArrow=none;html=1;entryX=0;entryY=0.5;entryDx=0;entryDy=0;exitX=0.5;exitY=0;exitDx=0;exitDy=0;" edge="1" parent="1" source="7" target="6">
                    <mxGeometry width="50" height="50" relative="1" as="geometry">
                        <mxPoint x="390" y="490" as="sourcePoint"/>
                        <mxPoint x="440" y="440" as="targetPoint"/>
                        <Array as="points">
                            <mxPoint x="290" y="300"/>
                        </Array>
                    </mxGeometry>
                </mxCell>
                <mxCell id="12" value="cuota_fija&amp;nbsp;" style="rounded=0;whiteSpace=wrap;html=1;fillColor=#7F00FF;" vertex="1" parent="1">
                    <mxGeometry x="550" y="360" width="120" height="60" as="geometry"/>
                </mxCell>
                <mxCell id="13" value="cuota_fija + cuota_metro_50_200" style="rounded=0;whiteSpace=wrap;html=1;fillColor=#7F00FF;" vertex="1" parent="1">
                    <mxGeometry x="380" y="480" width="120" height="60" as="geometry"/>
                </mxCell>
                <mxCell id="14" value="cuota_fija + cuota_metro_200_mas" style="rounded=0;whiteSpace=wrap;html=1;fillColor=#7F00FF;" vertex="1" parent="1">
                    <mxGeometry x="80" y="480" width="120" height="60" as="geometry"/>
                </mxCell>
                <mxCell id="15" value="" style="endArrow=none;html=1;exitX=0.5;exitY=1;exitDx=0;exitDy=0;" edge="1" parent="1" source="14">
                    <mxGeometry width="50" height="50" relative="1" as="geometry">
                        <mxPoint x="390" y="470" as="sourcePoint"/>
                        <mxPoint x="520" y="640" as="targetPoint"/>
                        <Array as="points">
                            <mxPoint x="140" y="640"/>
                        </Array>
                    </mxGeometry>
                </mxCell>
                <mxCell id="16" value="" style="endArrow=none;html=1;" edge="1" parent="1">
                    <mxGeometry width="50" height="50" relative="1" as="geometry">
                        <mxPoint x="440" y="640" as="sourcePoint"/>
                        <mxPoint x="440" y="540" as="targetPoint"/>
                    </mxGeometry>
                </mxCell>
                <mxCell id="17" value="" style="endArrow=none;html=1;entryX=0.5;entryY=1;entryDx=0;entryDy=0;" edge="1" parent="1" target="12">
                    <mxGeometry width="50" height="50" relative="1" as="geometry">
                        <mxPoint x="520" y="640" as="sourcePoint"/>
                        <mxPoint x="440" y="420" as="targetPoint"/>
                        <Array as="points">
                            <mxPoint x="610" y="640"/>
                        </Array>
                    </mxGeometry>
                </mxCell>
                <mxCell id="30" value="" style="edgeStyle=none;html=1;" edge="1" parent="1" source="19" target="20">
                    <mxGeometry relative="1" as="geometry"/>
                </mxCell>
                <mxCell id="21" value="" style="endArrow=none;html=1;" edge="1" parent="1">
                    <mxGeometry width="50" height="50" relative="1" as="geometry">
                        <mxPoint x="400" y="720" as="sourcePoint"/>
                        <mxPoint x="400" y="640" as="targetPoint"/>
                    </mxGeometry>
                </mxCell>
                <mxCell id="22" value="TRUE" style="text;html=1;strokeColor=none;fillColor=none;align=center;verticalAlign=middle;whiteSpace=wrap;rounded=0;" vertex="1" parent="1">
                    <mxGeometry x="500" y="270" width="60" height="30" as="geometry"/>
                </mxCell>
                <mxCell id="23" value="FALSE" style="text;html=1;strokeColor=none;fillColor=none;align=center;verticalAlign=middle;whiteSpace=wrap;rounded=0;" vertex="1" parent="1">
                    <mxGeometry x="300" y="270" width="60" height="30" as="geometry"/>
                </mxCell>
                <mxCell id="24" value="TRUE" style="text;html=1;strokeColor=none;fillColor=none;align=center;verticalAlign=middle;whiteSpace=wrap;rounded=0;" vertex="1" parent="1">
                    <mxGeometry x="340" y="370" width="60" height="30" as="geometry"/>
                </mxCell>
                <mxCell id="25" value="FALSE" style="text;html=1;strokeColor=none;fillColor=none;align=center;verticalAlign=middle;whiteSpace=wrap;rounded=0;" vertex="1" parent="1">
                    <mxGeometry x="170" y="375" width="60" height="30" as="geometry"/>
                </mxCell>
                <mxCell id="28" value="" style="endArrow=none;html=1;startArrow=none;" edge="1" parent="1" source="19">
                    <mxGeometry width="50" height="50" relative="1" as="geometry">
                        <mxPoint x="400" y="860" as="sourcePoint"/>
                        <mxPoint x="400" y="710" as="targetPoint"/>
                    </mxGeometry>
                </mxCell>
                <mxCell id="33" value="" style="edgeStyle=none;html=1;fontSize=12;fontColor=#FFFFFF;" edge="1" parent="1" source="32" target="6">
                    <mxGeometry relative="1" as="geometry"/>
                </mxCell>
                <mxCell id="32" value="&lt;div style=&quot;font-family: &amp;quot;Droid Sans Mono&amp;quot;, &amp;quot;monospace&amp;quot;, monospace; line-height: 19px;&quot;&gt;&lt;h6 style=&quot;&quot;&gt;&lt;font color=&quot;#ffffff&quot; style=&quot;font-size: 12px;&quot;&gt;cuota_fija&amp;nbsp;=&amp;nbsp;10000&lt;br&gt;cuota_metro_50_200&amp;nbsp;=&amp;nbsp;2000&lt;br&gt;cuota_metro_200_mas&amp;nbsp;=&amp;nbsp;3000&lt;/font&gt;&lt;/h6&gt;&lt;/div&gt;" style="rounded=0;whiteSpace=wrap;html=1;fillColor=#7F00FF;" vertex="1" parent="1">
                    <mxGeometry x="310" y="100" width="180" height="110" as="geometry"/>
                </mxCell>
                <mxCell id="34" value="" style="endArrow=none;html=1;" edge="1" parent="1" target="19">
                    <mxGeometry width="50" height="50" relative="1" as="geometry">
                        <mxPoint x="400" y="860" as="sourcePoint"/>
                        <mxPoint x="400" y="710" as="targetPoint"/>
                    </mxGeometry>
                </mxCell>
                <mxCell id="19" value="gasto final" style="shape=document;whiteSpace=wrap;html=1;boundedLbl=1;fillColor=#FF0000;" vertex="1" parent="1">
                    <mxGeometry x="340" y="690" width="120" height="70" as="geometry"/>
                </mxCell>
                <mxCell id="35" value="" style="edgeStyle=none;html=1;endArrow=none;" edge="1" parent="1" source="19" target="20">
                    <mxGeometry relative="1" as="geometry">
                        <mxPoint x="400" y="760" as="sourcePoint"/>
                        <mxPoint x="400" y="1020" as="targetPoint"/>
                    </mxGeometry>
                </mxCell>
                <mxCell id="20" value="final" style="ellipse;whiteSpace=wrap;html=1;fillColor=#000099;" vertex="1" parent="1">
                    <mxGeometry x="340" y="830" width="120" height="80" as="geometry"/>
                </mxCell>
            </root>
        </mxGraphModel>
    </diagram>
</mxfile>